<svg width="36" height="36" viewBox="0 0 36 36" fill="none" xmlns="http://www.w3.org/2000/svg">
<path d="M7.5 31.5C6.675 31.5 5.9625 31.2125 5.3625 30.6375C4.7875 30.0375 4.5 29.325 4.5 28.5V7.5C4.5 6.675 4.7875 5.975 5.3625 5.4C5.9625 4.8 6.675 4.5 7.5 4.5H28.5C29.325 4.5 30.025 4.8 30.6 5.4C31.2 5.975 31.5 6.675 31.5 7.5V28.5C31.5 29.325 31.2 30.0375 30.6 30.6375C30.025 31.2125 29.325 31.5 28.5 31.5H7.5ZM18 24C18.95 24 19.8125 23.725 20.5875 23.175C21.3625 22.625 21.9 21.9 22.2 21H28.5V7.5H7.5V21H13.8C14.1 21.9 14.6375 22.625 15.4125 23.175C16.1875 23.725 17.05 24 18 24Z" fill="#1D1B20"/>
</svg>
