<svg width="36" height="36" viewBox="0 0 36 36" fill="none" xmlns="http://www.w3.org/2000/svg">
<path d="M18 31.5C14.25 31.5 11.0625 30.1875 8.4375 27.5625C5.8125 24.9375 4.5 21.75 4.5 18C4.5 14.25 5.8125 11.0625 8.4375 8.4375C11.0625 5.8125 14.25 4.5 18 4.5C18.35 4.5 18.6938 4.5125 19.0312 4.5375C19.3687 4.5625 19.7 4.6 20.025 4.65C19 5.375 18.1813 6.31875 17.5688 7.48125C16.9563 8.64375 16.65 9.9 16.65 11.25C16.65 13.5 17.4375 15.4125 19.0125 16.9875C20.5875 18.5625 22.5 19.35 24.75 19.35C26.125 19.35 27.3875 19.0438 28.5375 18.4313C29.6875 17.8188 30.625 17 31.35 15.975C31.4 16.3 31.4375 16.6313 31.4625 16.9688C31.4875 17.3062 31.5 17.65 31.5 18C31.5 21.75 30.1875 24.9375 27.5625 27.5625C24.9375 30.1875 21.75 31.5 18 31.5ZM18 28.5C20.2 28.5 22.175 27.8938 23.925 26.6813C25.675 25.4688 26.95 23.8875 27.75 21.9375C27.25 22.0625 26.75 22.1625 26.25 22.2375C25.75 22.3125 25.25 22.35 24.75 22.35C21.675 22.35 19.0562 21.2688 16.8937 19.1063C14.7312 16.9438 13.65 14.325 13.65 11.25C13.65 10.75 13.6875 10.25 13.7625 9.75C13.8375 9.25 13.9375 8.75 14.0625 8.25C12.1125 9.05 10.5312 10.325 9.31875 12.075C8.10625 13.825 7.5 15.8 7.5 18C7.5 20.9 8.525 23.375 10.575 25.425C12.625 27.475 15.1 28.5 18 28.5Z" fill="#FEF7FF"/>
</svg>
