<svg width="36" height="36" viewBox="0 0 36 36" fill="none" xmlns="http://www.w3.org/2000/svg">
<path d="M18 33C15.95 33 14.0125 32.6062 12.1875 31.8187C10.3625 31.0312 8.76875 29.9562 7.40625 28.5938C6.04375 27.2313 4.96875 25.6375 4.18125 23.8125C3.39375 21.9875 3 20.05 3 18C3 15.925 3.39375 13.9813 4.18125 12.1688C4.96875 10.3563 6.04375 8.76875 7.40625 7.40625C8.76875 6.04375 10.3625 4.96875 12.1875 4.18125C14.0125 3.39375 15.95 3 18 3C20.075 3 22.0187 3.39375 23.8312 4.18125C25.6437 4.96875 27.2313 6.04375 28.5938 7.40625C29.9562 8.76875 31.0312 10.3563 31.8187 12.1688C32.6062 13.9813 33 15.925 33 18C33 20.05 32.6062 21.9875 31.8187 23.8125C31.0312 25.6375 29.9562 27.2313 28.5938 28.5938C27.2313 29.9562 25.6437 31.0312 23.8312 31.8187C22.0187 32.6062 20.075 33 18 33ZM18 29.925C18.65 29.025 19.2125 28.0875 19.6875 27.1125C20.1625 26.1375 20.55 25.1 20.85 24H15.15C15.45 25.1 15.8375 26.1375 16.3125 27.1125C16.7875 28.0875 17.35 29.025 18 29.925ZM14.1 29.325C13.65 28.5 13.2563 27.6438 12.9188 26.7563C12.5813 25.8688 12.3 24.95 12.075 24H7.65C8.375 25.25 9.28125 26.3375 10.3687 27.2625C11.4563 28.1875 12.7 28.875 14.1 29.325ZM21.9 29.325C23.3 28.875 24.5438 28.1875 25.6313 27.2625C26.7188 26.3375 27.625 25.25 28.35 24H23.925C23.7 24.95 23.4187 25.8688 23.0812 26.7563C22.7437 27.6438 22.35 28.5 21.9 29.325ZM6.375 21H11.475C11.4 20.5 11.3438 20.0063 11.3062 19.5187C11.2688 19.0312 11.25 18.525 11.25 18C11.25 17.475 11.2688 16.9688 11.3062 16.4813C11.3438 15.9938 11.4 15.5 11.475 15H6.375C6.25 15.5 6.15625 15.9938 6.09375 16.4813C6.03125 16.9688 6 17.475 6 18C6 18.525 6.03125 19.0312 6.09375 19.5187C6.15625 20.0063 6.25 20.5 6.375 21ZM14.475 21H21.525C21.6 20.5 21.6562 20.0063 21.6938 19.5187C21.7313 19.0312 21.75 18.525 21.75 18C21.75 17.475 21.7313 16.9688 21.6938 16.4813C21.6562 15.9938 21.6 15.5 21.525 15H14.475C14.4 15.5 14.3438 15.9938 14.3062 16.4813C14.2688 16.9688 14.25 17.475 14.25 18C14.25 18.525 14.2688 19.0312 14.3062 19.5187C14.3438 20.0063 14.4 20.5 14.475 21ZM24.525 21H29.625C29.75 20.5 29.8438 20.0063 29.9062 19.5187C29.9688 19.0312 30 18.525 30 18C30 17.475 29.9688 16.9688 29.9062 16.4813C29.8438 15.9938 29.75 15.5 29.625 15H24.525C24.6 15.5 24.6562 15.9938 24.6938 16.4813C24.7313 16.9688 24.75 17.475 24.75 18C24.75 18.525 24.7313 19.0312 24.6938 19.5187C24.6562 20.0063 24.6 20.5 24.525 21ZM23.925 12H28.35C27.625 10.75 26.7188 9.6625 25.6313 8.7375C24.5438 7.8125 23.3 7.125 21.9 6.675C22.35 7.5 22.7437 8.35625 23.0812 9.24375C23.4187 10.1312 23.7 11.05 23.925 12ZM15.15 12H20.85C20.55 10.9 20.1625 9.8625 19.6875 8.8875C19.2125 7.9125 18.65 6.975 18 6.075C17.35 6.975 16.7875 7.9125 16.3125 8.8875C15.8375 9.8625 15.45 10.9 15.15 12ZM7.65 12H12.075C12.3 11.05 12.5813 10.1312 12.9188 9.24375C13.2563 8.35625 13.65 7.5 14.1 6.675C12.7 7.125 11.4563 7.8125 10.3687 8.7375C9.28125 9.6625 8.375 10.75 7.65 12Z" fill="#1D1B20"/>
</svg>
