<svg width="50" height="50" viewBox="0 0 50 50" fill="none" xmlns="http://www.w3.org/2000/svg">
<path d="M25 50C21.5833 50 18.3542 49.3438 15.3125 48.0312C12.2708 46.7188 9.61458 44.9271 7.34375 42.6562C5.07292 40.3854 3.28125 37.7292 1.96875 34.6875C0.65625 31.6458 0 28.4167 0 25C0 21.5417 0.65625 18.3021 1.96875 15.2812C3.28125 12.2604 5.07292 9.61458 7.34375 7.34375C9.61458 5.07292 12.2708 3.28125 15.3125 1.96875C18.3542 0.65625 21.5833 0 25 0C28.4583 0 31.6979 0.65625 34.7188 1.96875C37.7396 3.28125 40.3854 5.07292 42.6562 7.34375C44.9271 9.61458 46.7188 12.2604 48.0312 15.2812C49.3438 18.3021 50 21.5417 50 25C50 28.4167 49.3438 31.6458 48.0312 34.6875C46.7188 37.7292 44.9271 40.3854 42.6562 42.6562C40.3854 44.9271 37.7396 46.7188 34.7188 48.0312C31.6979 49.3438 28.4583 50 25 50ZM25 44.875C26.0833 43.375 27.0208 41.8125 27.8125 40.1875C28.6042 38.5625 29.25 36.8333 29.75 35H20.25C20.75 36.8333 21.3958 38.5625 22.1875 40.1875C22.9792 41.8125 23.9167 43.375 25 44.875ZM18.5 43.875C17.75 42.5 17.0938 41.0729 16.5312 39.5938C15.9688 38.1146 15.5 36.5833 15.125 35H7.75C8.95833 37.0833 10.4688 38.8958 12.2812 40.4375C14.0938 41.9792 16.1667 43.125 18.5 43.875ZM31.5 43.875C33.8333 43.125 35.9062 41.9792 37.7188 40.4375C39.5312 38.8958 41.0417 37.0833 42.25 35H34.875C34.5 36.5833 34.0312 38.1146 33.4688 39.5938C32.9062 41.0729 32.25 42.5 31.5 43.875ZM5.625 30H14.125C14 29.1667 13.9062 28.3438 13.8438 27.5312C13.7812 26.7188 13.75 25.875 13.75 25C13.75 24.125 13.7812 23.2812 13.8438 22.4688C13.9062 21.6562 14 20.8333 14.125 20H5.625C5.41667 20.8333 5.26042 21.6562 5.15625 22.4688C5.05208 23.2812 5 24.125 5 25C5 25.875 5.05208 26.7188 5.15625 27.5312C5.26042 28.3438 5.41667 29.1667 5.625 30ZM19.125 30H30.875C31 29.1667 31.0938 28.3438 31.1563 27.5312C31.2188 26.7188 31.25 25.875 31.25 25C31.25 24.125 31.2188 23.2812 31.1563 22.4688C31.0938 21.6562 31 20.8333 30.875 20H19.125C19 20.8333 18.9062 21.6562 18.8438 22.4688C18.7812 23.2812 18.75 24.125 18.75 25C18.75 25.875 18.7812 26.7188 18.8438 27.5312C18.9062 28.3438 19 29.1667 19.125 30ZM35.875 30H44.375C44.5833 29.1667 44.7396 28.3438 44.8438 27.5312C44.9479 26.7188 45 25.875 45 25C45 24.125 44.9479 23.2812 44.8438 22.4688C44.7396 21.6562 44.5833 20.8333 44.375 20H35.875C36 20.8333 36.0938 21.6562 36.1562 22.4688C36.2188 23.2812 36.25 24.125 36.25 25C36.25 25.875 36.2188 26.7188 36.1562 27.5312C36.0938 28.3438 36 29.1667 35.875 30ZM34.875 15H42.25C41.0417 12.9167 39.5312 11.1042 37.7188 9.5625C35.9062 8.02083 33.8333 6.875 31.5 6.125C32.25 7.5 32.9062 8.92708 33.4688 10.4062C34.0312 11.8854 34.5 13.4167 34.875 15ZM20.25 15H29.75C29.25 13.1667 28.6042 11.4375 27.8125 9.8125C27.0208 8.1875 26.0833 6.625 25 5.125C23.9167 6.625 22.9792 8.1875 22.1875 9.8125C21.3958 11.4375 20.75 13.1667 20.25 15ZM7.75 15H15.125C15.5 13.4167 15.9688 11.8854 16.5312 10.4062C17.0938 8.92708 17.75 7.5 18.5 6.125C16.1667 6.875 14.0938 8.02083 12.2812 9.5625C10.4688 11.1042 8.95833 12.9167 7.75 15Z" fill="#FEF7FF"/>
</svg>
