<svg width="36" height="36" viewBox="0 0 36 36" fill="none" xmlns="http://www.w3.org/2000/svg">
<path d="M18 22.5C19.25 22.5 20.3125 22.0625 21.1875 21.1875C22.0625 20.3125 22.5 19.25 22.5 18C22.5 16.75 22.0625 15.6875 21.1875 14.8125C20.3125 13.9375 19.25 13.5 18 13.5C16.75 13.5 15.6875 13.9375 14.8125 14.8125C13.9375 15.6875 13.5 16.75 13.5 18C13.5 19.25 13.9375 20.3125 14.8125 21.1875C15.6875 22.0625 16.75 22.5 18 22.5ZM18 25.5C15.925 25.5 14.1562 24.7688 12.6938 23.3063C11.2312 21.8438 10.5 20.075 10.5 18C10.5 15.925 11.2312 14.1562 12.6938 12.6938C14.1562 11.2312 15.925 10.5 18 10.5C20.075 10.5 21.8438 11.2312 23.3063 12.6938C24.7688 14.1562 25.5 15.925 25.5 18C25.5 20.075 24.7688 21.8438 23.3063 23.3063C21.8438 24.7688 20.075 25.5 18 25.5ZM7.5 19.5H1.5V16.5H7.5V19.5ZM34.5 19.5H28.5V16.5H34.5V19.5ZM16.5 7.5V1.5H19.5V7.5H16.5ZM16.5 34.5V28.5H19.5V34.5H16.5ZM9.6 11.625L5.8125 7.9875L7.95 5.775L11.55 9.525L9.6 11.625ZM28.05 30.225L24.4125 26.4375L26.4 24.375L30.1875 28.0125L28.05 30.225ZM24.375 9.6L28.0125 5.8125L30.225 7.95L26.475 11.55L24.375 9.6ZM5.775 28.05L9.5625 24.4125L11.625 26.4L7.9875 30.1875L5.775 28.05Z" fill="#1D1B20"/>
</svg>
